<svg xmlns="http://www.w3.org/2000/svg" xmlns:xlink="http://www.w3.org/1999/xlink" width="75.116" height="75.116" viewBox="0 0 75.116 75.116">
  <defs>
    <linearGradient id="linear-gradient" x1="0.5" x2="0.5" y2="1" gradientUnits="objectBoundingBox">
      <stop offset="0" stop-color="#4ea3df"/>
      <stop offset="1" stop-color="#7a5cf0"/>
    </linearGradient>
  </defs>
  <g id="analytics" transform="translate(-1 -1)">
    <path id="Path_71" data-name="Path 71" d="M76.116,7.058A6.065,6.065,0,0,0,70.058,1h-63A6.065,6.065,0,0,0,1,7.058v3.635H3.423V56.731H21.707l-9.1,13.138a3.981,3.981,0,0,0,3.274,6.247H18.85a3.957,3.957,0,0,0,3.375-1.871L33.172,56.731h.54v15.4a3.987,3.987,0,0,0,3.981,3.981h1.73A3.987,3.987,0,0,0,43.4,72.135v-15.4h.54L54.891,74.246a3.957,3.957,0,0,0,3.375,1.871h2.965A3.981,3.981,0,0,0,64.5,69.869l-9.1-13.138H73.693V10.692h2.423Zm-55.945,65.9a1.551,1.551,0,0,1-1.322.732H15.885a1.56,1.56,0,0,1-1.558-1.558,1.54,1.54,0,0,1,.277-.886l10.05-14.518h5.66Zm20.81-.826a1.56,1.56,0,0,1-1.558,1.558h-1.73a1.56,1.56,0,0,1-1.558-1.558v-15.4h4.846Zm21.53-.887a1.558,1.558,0,0,1-1.281,2.445H58.266a1.552,1.552,0,0,1-1.322-.732L46.8,56.731h5.66Zm8.758-16.94H5.846V10.692H27.654a2.426,2.426,0,0,0,2.423,2.423H47.039a2.426,2.426,0,0,0,2.423-2.423H71.27ZM30.077,10.692V8.269H47.039l0,2.423ZM73.693,8.269H49.462a2.426,2.426,0,0,0-2.423-2.423H30.077a2.426,2.426,0,0,0-2.423,2.423H3.423V7.058A3.639,3.639,0,0,1,7.058,3.423h63a3.639,3.639,0,0,1,3.635,3.635Z" fill="url(#linear-gradient)"/>
    <path id="Path_72" data-name="Path 72" d="M63.943,24.9H40.923V17.635A3.639,3.639,0,0,0,37.289,14H10.635A3.639,3.639,0,0,0,7,17.635V34.6a3.639,3.639,0,0,0,3.635,3.635H33.654V45.5a3.639,3.639,0,0,0,3.635,3.635H63.943A3.639,3.639,0,0,0,67.578,45.5V28.539A3.639,3.639,0,0,0,63.943,24.9Zm-53.308,10.9A1.212,1.212,0,0,1,9.423,34.6V17.635a1.212,1.212,0,0,1,1.212-1.212H37.289A1.212,1.212,0,0,1,38.5,17.635V24.9H37.289a3.639,3.639,0,0,0-3.635,3.635v.71l-7.269-7.269-4.846,4.846-5.556-5.556H17.9V18.846H11.846V24.9h2.423V22.982l7.269,7.269,4.846-4.846,7.269,7.269v3.133ZM65.154,45.5a1.212,1.212,0,0,1-1.212,1.212H37.289A1.212,1.212,0,0,1,36.077,45.5V28.539a1.212,1.212,0,0,1,1.212-1.212H63.943a1.212,1.212,0,0,1,1.212,1.212Z" transform="translate(1.269 2.75)" fill="url(#linear-gradient)"/>
    <path id="Path_73" data-name="Path 73" d="M51.111,29.423h1.922l-5.556,5.556L42.63,30.133l-9.337,9.337,1.713,1.713,7.624-7.624,4.846,4.846,7.269-7.269v1.922h2.423V27H51.111Z" transform="translate(6.832 5.5)" fill="url(#linear-gradient)"/>
    <path id="Path_74" data-name="Path 74" d="M37,15h2.423v2.423H37Z" transform="translate(7.616 2.962)" fill="url(#linear-gradient)"/>
    <path id="Path_75" data-name="Path 75" d="M41,15H60.385v2.423H41Z" transform="translate(8.462 2.962)" fill="url(#linear-gradient)"/>
    <path id="Path_76" data-name="Path 76" d="M37,19H61.231v2.423H37Z" transform="translate(7.616 3.808)" fill="url(#linear-gradient)"/>
    <path id="Path_77" data-name="Path 77" d="M7,36H9.423v2.423H7Z" transform="translate(1.269 7.404)" fill="url(#linear-gradient)"/>
    <path id="Path_78" data-name="Path 78" d="M11,36H30.385v2.423H11Z" transform="translate(2.116 7.404)" fill="url(#linear-gradient)"/>
    <path id="Path_79" data-name="Path 79" d="M7,40H31.231v2.423H7Z" transform="translate(1.269 8.251)" fill="url(#linear-gradient)"/>
  </g>
</svg>
