<svg xmlns="http://www.w3.org/2000/svg" xmlns:xlink="http://www.w3.org/1999/xlink" width="523" height="523" viewBox="0 0 523 523">
  <defs>
    <filter id="Rectangle_1" x="0" y="0" width="523" height="523" filterUnits="userSpaceOnUse">
      <feOffset dy="3" input="SourceAlpha"/>
      <feGaussianBlur stdDeviation="49.5" result="blur"/>
      <feFlood flood-opacity="0.161"/>
      <feComposite operator="in" in2="blur"/>
      <feComposite in="SourceGraphic"/>
    </filter>
    <linearGradient id="linear-gradient" x1="0.5" x2="0.5" y2="1" gradientUnits="objectBoundingBox">
      <stop offset="0" stop-color="#50baf6"/>
      <stop offset="1" stop-color="#5780fb"/>
    </linearGradient>
  </defs>
  <g id="Component_1_10" data-name="Component 1 – 10" transform="translate(148.5 145.5)">
    <g transform="matrix(1, 0, 0, 1, -148.5, -145.5)" filter="url(#Rectangle_1)">
      <rect id="Rectangle_1-2" data-name="Rectangle 1" width="226" height="226" rx="113" transform="translate(148.5 145.5)" fill="#fff"/>
    </g>
    <g id="fender-bender" transform="translate(51.666 52.951)">
      <path id="Path_21" data-name="Path 21" d="M0,0H2V4H0Z" transform="translate(8.461 77.614) rotate(-82.008)"/>
      <path id="Path_22" data-name="Path 22" d="M0,0H2V2H0Z" transform="translate(31.55 109.955) rotate(-82.008)"/>
      <path id="Path_23" data-name="Path 23" d="M120.192,39.37l-.342-4.841L80.434,38.8c-2.678.287-4.861,2.779-5.3,6.058L73.341,58.128a5.646,5.646,0,0,0,.977,3.775,3.649,3.649,0,0,0,2.925,1.62,2.774,2.774,0,0,0,.346-.019l32.843-3.56,2.4,33.893-11.9,1.288c-1.549-8.238-7.763-13.812-14.575-13.075s-12.149,7.56-12.519,16.006l-6.026.651a1.7,1.7,0,0,1-1.43-.561,2.633,2.633,0,0,1-.7-1.648l-.171-2.43,5.871-.637-.344-4.841-5.871.644-.177-2.5,6.92-5.142a2.527,2.527,0,0,0,.938-1.787,2.8,2.8,0,0,0-.561-2.014l-2.54-3.14,2.54-3.142a2.811,2.811,0,0,0,.548-2.106,2.45,2.45,0,0,0-1.059-1.783l-6.773-4.189c.177-.858.35-1.718.576-2.556l7.391-22.189A6.154,6.154,0,0,1,77.912,34.2l40.5-4.374a5,5,0,0,1,1.334.044l.55-4.812a8.12,8.12,0,0,0-2.226-.073l-40.5,4.374c-3.661.387-6.838,3.276-8.228,7.482L61.91,59.2a49.833,49.833,0,0,0-1.668,11.062,18.539,18.539,0,0,0-1.6-3.414,13.465,13.465,0,0,0-9.069-6.607l-3.13-.544L56.9,51.071l2.79,3.451,2.778-3.436-3.93-4.86a1.694,1.694,0,0,0-2.48-.3L41.95,57.552l-13-25.956a9.933,9.933,0,0,0-6.981-5.628l-19.559-3.4L1.861,27.38l19.557,3.4a5.954,5.954,0,0,1,4.191,3.375l1.242,2.476L2.407,32.386,1.861,37.2l8.49,1.478L8.71,53.112l-6.3-1.094L1.861,56.83l6.3,1.1L4.335,91.617l-1.927-.335-.546,4.812L19.507,99.16c.028,9.37,6.178,16.948,13.753,16.948,6.107-.022,11.474-5.014,13.186-12.265l5.991,1.04a4.817,4.817,0,0,0,.831.073c2.934-.007,5.418-2.683,5.826-6.277L60.822,83.45l.955,13.47c.273,3.755,2.811,6.636,5.859,6.651a3.376,3.376,0,0,0,.519-.027l6.028-.654c1.462,7.671,6.989,13.1,13.36,13.123a11.243,11.243,0,0,0,1.208-.066c6.81-.731,12.148-7.548,12.52-15.99l18.917-2.049-.342-4.841-3.1.335-2.4-33.893,5.843-.632-.342-4.841L114,54.69l-1.026-14.544ZM57.384,78.752l-.275,2.406L49.328,79.8l.546-4.812L57.46,76.31a15.193,15.193,0,0,1-.077,2.442Zm-43.141-39.4,15.292,2.659v-.015l8.1,16.146L12.6,53.79Zm28.733,61.436c-.553,4.867-3.422,8.843-7.269,10.073s-7.915-.527-10.306-4.453a14.578,14.578,0,0,1-.95-12.723c1.657-4.121,5.055-6.731,8.776-6.74a8.143,8.143,0,0,1,1.389.119c5.368.943,9.107,7.08,8.361,13.723Zm10-.714-5.993-1.043c-.017-6.433-2.969-12.3-7.628-15.164a11.613,11.613,0,0,0-14.378,1.645,17.373,17.373,0,0,0-4.912,8.838L8.225,92.293l3.829-33.679,29.179,5.062,7.782,1.354c3.076.441,5.773,2.749,7.189,6.155l-5.79-1.006c-2.148-.374-4.134,1.475-4.438,4.131l-.546,4.812c-.3,2.657,1.192,5.116,3.34,5.492l7.782,1.351-.546,4.814-5.837-1.013-.546,4.812,5.837,1.016L55.185,98a2.084,2.084,0,0,1-2.208,2.073ZM67.585,70.459l-2,2.476a2.853,2.853,0,0,0,0,3.436l2.151,2.656-3.122,2.321-.411-5.8a45.526,45.526,0,0,1,.069-7.14ZM97.343,97.95c.473,6.685-3.525,12.579-8.93,13.164s-10.17-4.361-10.643-11.046S81.3,87.489,86.7,86.905a8.185,8.185,0,0,1,.872-.049c5.088.011,9.326,4.825,9.769,11.093Zm12.749-42.818L77.232,58.789,79.01,45.667a2.193,2.193,0,0,1,1.768-2.019l28.293-3.062Z" transform="translate(0)" fill="url(#linear-gradient)"/>
      <path id="Path_24" data-name="Path 24" d="M0,0H4V2H0Z" transform="translate(82.252 78.54) rotate(-4.992)"/>
      <path id="Path_25" data-name="Path 25" d="M0,0H2V2H0Z" transform="translate(86.898 108.172) rotate(-4.992)"/>
      <path id="Path_26" data-name="Path 26" d="M18.293,26.707l1.414-1.414L18.414,24H21a1,1,0,0,0,1-1V20.414l3.293,3.293a1,1,0,0,0,1.414,0L30,20.414V23a1,1,0,0,0,1,1h3.586l-2.293,2.293,1.414,1.414,4-4A1,1,0,0,0,37,22H32V18a1,1,0,0,0-1.707-.707L26,21.586l-4.293-4.293A1,1,0,0,0,20,18v4H16a1,1,0,0,0-.707,1.707Z" transform="translate(20.497 15.439)" fill="#50b4f6"/>
      <path id="Path_27" data-name="Path 27" d="M24.3,16h2a1.36,1.36,0,0,1,.465-1.021,3.322,3.322,0,0,0,0-4.62,1.358,1.358,0,0,1,0-2.048A3.29,3.29,0,0,0,27.7,6h-2a1.362,1.362,0,0,1-.466,1.024,3.326,3.326,0,0,0,0,4.622,1.356,1.356,0,0,1,0,2.045A3.28,3.28,0,0,0,24.3,16Z" transform="translate(22.943)" fill="#50b5f6"/>
      <path id="Path_28" data-name="Path 28" d="M30.3,14h2a1.36,1.36,0,0,1,.465-1.021,3.322,3.322,0,0,0,0-4.62,1.358,1.358,0,0,1,0-2.048A3.29,3.29,0,0,0,33.7,4h-2a1.362,1.362,0,0,1-.466,1.024,3.326,3.326,0,0,0,0,4.622,1.356,1.356,0,0,1,0,2.045A3.28,3.28,0,0,0,30.3,14Z" transform="translate(29.077)" fill="#50b5f6"/>
    </g>
  </g>
</svg>
