<svg xmlns="http://www.w3.org/2000/svg" xmlns:xlink="http://www.w3.org/1999/xlink" width="110.218" height="110.053" viewBox="0 0 110.218 110.053">
  <defs>
    <linearGradient id="linear-gradient" x1="0.5" x2="0.5" y2="1" gradientUnits="objectBoundingBox">
      <stop offset="0" stop-color="#50c6f6"/>
      <stop offset="1" stop-color="#5580f9"/>
    </linearGradient>
  </defs>
  <path id="earthquake" d="M110.215,22.533c-.023-.8.414.629-7.028-19.881A3.439,3.439,0,0,0,99.954.386h-28.5a3.44,3.44,0,0,0-3.233,2.266C60.8,23.1,61.192,21.77,61.192,22.633V36.712H38.69a3.439,3.439,0,0,0-2.734,1.353L31.51,43.891C16.784,35.9,18.917,36.712,16.282,36.712V25.6a12.843,12.843,0,1,0-6.878,0V36.712H3.439A3.439,3.439,0,0,0,0,40.151V107a3.439,3.439,0,0,0,3.439,3.439h103.34A3.439,3.439,0,0,0,110.218,107c0-2.992,0-84.325,0-84.467ZM6.878,13.229a5.965,5.965,0,1,1,5.965,5.965,5.971,5.971,0,0,1-5.965-5.965Zm66.5,5.965H69.537l1.918-5.286Zm8.346,17.518V26.072H103.34v10.64ZM97.544,7.264l4.329,11.93H80.691L76.362,7.264ZM68.07,26.072h6.771v10.64H68.07ZM35.191,50.406l3.079-4.035,7.813,13.745-13.6,15.137a3.44,3.44,0,0,0-.864,1.957L30.557,87.784l-9.964-8.676,8.93-18.09a3.44,3.44,0,0,0,.033-2.977l-4.616-9.891,5.877,3.19a3.439,3.439,0,0,0,4.375-.936ZM103.34,103.56H6.878V43.59H15.22l7.4,15.864L13.252,78.44a3.439,3.439,0,0,0,.825,4.116L31.058,97.341a3.443,3.443,0,0,0,5.68-2.252l1.608-16.076L52.855,62.87a3.439,3.439,0,0,0,.432-4L44.6,43.59H68.353v8.368l-2.173.015a3.44,3.44,0,0,0-3.389,3.013L61.4,66.124,55.706,73.78c-.222.3.488-.992-8.44,15.69a3.439,3.439,0,1,0,6.064,3.246l5.838-10.907,4.242,4.786v9.228a3.439,3.439,0,0,0,6.878,0V85.29a3.439,3.439,0,0,0-.865-2.281l-6.529-7.366L67.459,69.5c.731-.983.552-.815,1.783-10.671l1.962-.013,3.179,1.143-.6.464a3.439,3.439,0,0,0-1.032,4.154c7.685,16.842,7.24,16.3,8.281,17.05L87.956,86.6,88.92,92.9a3.439,3.439,0,0,0,6.8-1.039l-1.182-7.738a3.438,3.438,0,0,0-1.4-2.276l-4.776-3.425,4.058-3.973,4.647-1.072a3.439,3.439,0,1,0-1.547-6.7c-5.8,1.339-6.3,1.28-7.221,2.183l-4.174,4.087L80.14,64.209l3.422-2.632a3.441,3.441,0,0,0-.933-5.962l-7.4-2.659V43.59H103.34Z" transform="translate(0 -0.386)" fill="url(#linear-gradient)"/>
</svg>
