<svg xmlns="http://www.w3.org/2000/svg" xmlns:xlink="http://www.w3.org/1999/xlink" width="123.936" height="123.936" viewBox="0 0 123.936 123.936">
  <defs>
    <linearGradient id="linear-gradient" x1="0.5" x2="0.5" y2="1" gradientUnits="objectBoundingBox">
      <stop offset="0" stop-color="#50c9f6"/>
      <stop offset="1" stop-color="#5680fa"/>
    </linearGradient>
  </defs>
  <g id="fire" transform="translate(0)">
    <g id="Group_21" data-name="Group 21" transform="translate(0)">
      <g id="Group_20" data-name="Group 20">
        <path id="Path_29" data-name="Path 29" d="M123.934,98.8a28.4,28.4,0,0,0-7.054-18.383l-6.117-6.96a2.42,2.42,0,0,0-4.224,1.334c-.1.893-.215,1.764-.346,2.6a118.4,118.4,0,0,0-7.25-17.313,2.409,2.409,0,0,0-.4-.55V56.634a2.416,2.416,0,0,0,3.2-.645l7.485-10.228a2.421,2.421,0,0,0-.442-3.32L56.357.53a2.42,2.42,0,0,0-3.023,0L35.991,14.4v-5.5h.073a2.421,2.421,0,0,0,0-4.841H13.31a2.421,2.421,0,1,0,0,4.841h.073V32.469L.909,42.441a2.42,2.42,0,0,0-.442,3.32L7.952,55.989a2.416,2.416,0,0,0,3.328.56V115.1a2.421,2.421,0,0,0,2.421,2.421H76.834a27.039,27.039,0,0,0,8.555,6.2,2.418,2.418,0,0,0,1.011.221h20.8a2.42,2.42,0,0,0,1.011-.221A26.954,26.954,0,0,0,123.934,98.8ZM18.224,8.893H31.149v9.372L18.224,28.6V8.893ZM10.357,51.077l-4.613-6.3L54.846,5.52l49.1,39.254-4.613,6.3L56.37,16.246a2.42,2.42,0,0,0-3.049,0ZM60.583,64.9V94.5H32.347a2.421,2.421,0,1,0,0,4.841H60.582v13.331H16.122V54.119H70.371a2.421,2.421,0,0,0,0-4.841H20.265L54.846,21.242,93.7,52.743v8.32l-4.695,5.342q-.809.922-1.554,1.885V64.9a2.421,2.421,0,0,0-2.421-2.421H63A2.421,2.421,0,0,0,60.583,64.9ZM73.67,84.448q-.29.463-.561.936c-.085.148-.163.3-.245.447-.092.168-.187.335-.276.5-.1.189-.19.38-.284.571-.065.132-.134.263-.2.4-.1.211-.192.424-.286.636-.051.115-.106.229-.155.345-.1.224-.183.45-.272.675-.042.107-.088.213-.128.32-.087.23-.167.462-.248.694-.037.105-.076.209-.112.315-.077.231-.147.464-.218.7-.033.108-.069.216-.1.325-.066.229-.126.459-.186.689-.03.115-.064.23-.092.346-.055.223-.1.447-.153.671-.028.125-.059.249-.084.375-.044.213-.081.428-.12.642-.025.138-.053.276-.076.415-.033.2-.06.4-.089.606-.022.154-.046.307-.066.461-.023.187-.041.376-.06.564-.018.171-.038.341-.052.512s-.023.347-.035.521-.027.374-.035.562c-.007.159-.009.318-.013.478-.006.2-.013.408-.014.613,0,.144,0,.288.005.433,0,.221,0,.442.011.663,0,.13.014.261.02.392.01.2.017.406.031.61,0,.039.007.077.01.115,0,.011,0,.023,0,.034,0,.028.006.056.008.085q.036.46.088.917c.007.061.014.123.021.184q.122,1.02.317,2.02c.012.062.025.125.038.187q.089.441.193.877c.01.04.018.081.028.122q.119.491.256.976c.015.053.031.106.047.16q.116.4.245.8c.024.074.048.148.072.222.1.312.212.623.327.931l.013.032c.109.292.225.581.345.868.036.086.072.171.109.257q.152.355.314.706c.031.066.06.133.091.2q.2.428.419.848c.041.08.085.16.127.24q.168.319.346.634c.05.088.1.176.15.264.026.045.05.09.076.134h-7.8V67.317H82.61v9.015A39.292,39.292,0,0,0,80.535,82.1l-.022.081q-.083.3-.16.608c-.021.083-.042.167-.063.25-.038.152-.075.3-.111.455s-.068.293-.1.44c-.021.093-.042.187-.062.28q-.072.334-.138.669l-.013.064a38.926,38.926,0,0,0-.577,4.014c-.042-.11-.081-.225-.122-.336-.071-.194-.143-.386-.212-.584-.032-.091-.061-.184-.092-.275-.076-.224-.153-.447-.226-.674-.02-.061-.038-.125-.057-.186-.082-.26-.163-.521-.241-.786q-.143-.492-.274-.994a2.421,2.421,0,0,0-4.394-.675Zm29.1,34.646H91.657a8.486,8.486,0,0,1-.722-4.925,4.942,4.942,0,0,1,1.586-3.232c2.65-1.923,4.52-6.744,5.609-10.382,2.564,2.941,5.966,8.036,5.966,14.358A7.231,7.231,0,0,1,102.771,119.094Zm10.708-5.158a22.4,22.4,0,0,1-4.963,4.137,12.11,12.11,0,0,0,.421-3.159c0-12.49-10.178-20.6-10.612-20.936a2.421,2.421,0,0,0-3.86,1.4c-.827,3.892-2.92,10.282-4.788,11.638a9.5,9.5,0,0,0-3.529,6.429,13.551,13.551,0,0,0,.281,5.378,22.306,22.306,0,0,1-6.5-5.11c-.118-.134-.231-.27-.345-.407-.064-.077-.129-.153-.192-.231q-.179-.22-.353-.445l-.06-.076a22.622,22.622,0,0,1-3.593-20.317c.047.114.1.224.143.336s.1.238.151.354.1.235.155.351.1.221.145.328c.056.124.111.243.167.364.044.1.088.194.132.288.063.135.126.266.189.4.036.075.072.153.108.227.075.156.15.307.224.457.022.045.045.093.068.137.088.176.174.346.259.512l.026.052c.188.366.37.711.544,1.031.773,1.427,1.457,2.533,1.895,3.209.276.426.482.726.607.9a2.838,2.838,0,0,0,1.8,1.286l.02,0c.055.008.11.015.167.02s.1,0,.145.005.084,0,.128,0,.117-.007.176-.014l.077-.01c.085-.013.171-.028.258-.049s.158-.043.234-.07a2.422,2.422,0,0,0,1.514-1.621l.005-.015c.02-.071.036-.144.049-.217,0,0,0-.006,0-.009.01-.058.016-.116.022-.175,0-.019.006-.038.007-.057,0-.047,0-.094,0-.142,0-.031,0-.062,0-.094h0c0-.053-.007-.106-.011-.158,0,0,0-.006,0-.009,0-.024,0-.047-.005-.071h0c0-.036-.013-.071-.018-.107s-.013-.089-.023-.133c-.064-.288-.122-.578-.178-.867q-.024-.127-.048-.254-.063-.339-.118-.679c-.012-.074-.025-.148-.037-.222-.04-.259-.076-.518-.111-.777-.018-.14-.035-.281-.052-.421s-.03-.258-.043-.387q-.095-.894-.142-1.793c0-.03,0-.061,0-.091a33.873,33.873,0,0,1,.36-6.812l.014-.087q.139-.887.326-1.767c.031-.146.062-.292.1-.438.027-.12.054-.239.082-.359.065-.275.132-.549.2-.823.005-.021.011-.042.017-.063q.116-.437.243-.871l.023-.077a35.036,35.036,0,0,1,6.6-12.373q.328-.4.669-.785l3.587-4.081c2.536,5.347,7.244,16.213,7.244,23.156a2.421,2.421,0,0,0,4.689.845,61.319,61.319,0,0,0,2.392-8.968l2.686,3.056C120.992,92.442,121.094,105.48,113.479,113.937Z" transform="translate(0)" fill="url(#linear-gradient)"/>
      </g>
    </g>
    <g id="Group_23" data-name="Group 23" transform="translate(76.915 49.278)">
      <g id="Group_22" data-name="Group 22">
        <path id="Path_30" data-name="Path 30" d="M321.881,204.284a2.317,2.317,0,0,0-.368-.3,2.579,2.579,0,0,0-.419-.223,2.443,2.443,0,0,0-.453-.138,2.4,2.4,0,0,0-.946,0,2.443,2.443,0,0,0-.453.138,2.437,2.437,0,0,0-.787.523,2.431,2.431,0,0,0-.661,2.186,2.578,2.578,0,0,0,.138.453,2.467,2.467,0,0,0,.223.417,2.317,2.317,0,0,0,.3.368,2.737,2.737,0,0,0,.368.3,2.585,2.585,0,0,0,.419.223,2.446,2.446,0,0,0,.453.138,2.406,2.406,0,0,0,.474.046,2.442,2.442,0,0,0,1.711-.709,2.316,2.316,0,0,0,.3-.368,2.464,2.464,0,0,0,.223-.417,2.531,2.531,0,0,0,.138-.452,2.405,2.405,0,0,0-.661-2.186Z" transform="translate(-317.749 -203.576)" fill="url(#linear-gradient)"/>
      </g>
    </g>
    <g id="Group_25" data-name="Group 25" transform="translate(20.962 94.504)">
      <g id="Group_24" data-name="Group 24">
        <path id="Path_31" data-name="Path 31" d="M91.4,392.358a2.418,2.418,0,0,0-.138-.452,2.557,2.557,0,0,0-.223-.419,2.6,2.6,0,0,0-.3-.368A2.416,2.416,0,0,0,88.1,390.6a2.39,2.39,0,0,0-.419.223,2.317,2.317,0,0,0-.368.3,2.418,2.418,0,0,0-.3.368,2.574,2.574,0,0,0-.223.419,2.438,2.438,0,0,0-.138.453,2.336,2.336,0,0,0,0,.946,2.433,2.433,0,0,0,.138.453,2.554,2.554,0,0,0,.223.419,2.442,2.442,0,0,0,.3.368,2.315,2.315,0,0,0,.368.3,2.388,2.388,0,0,0,.419.223,2.438,2.438,0,0,0,.453.138,2.381,2.381,0,0,0,.472.046,2.424,2.424,0,0,0,2.375-2.892Z" transform="translate(-86.6 -390.412)" fill="url(#linear-gradient)"/>
      </g>
    </g>
    <g id="Group_27" data-name="Group 27" transform="translate(23.964 62.476)">
      <g id="Group_26" data-name="Group 26">
        <path id="Path_32" data-name="Path 32" d="M125.949,258.1H101.421A2.421,2.421,0,0,0,99,260.52v23.71a2.421,2.421,0,0,0,2.421,2.421h24.529a2.42,2.42,0,0,0,2.421-2.421V260.52A2.421,2.421,0,0,0,125.949,258.1Zm-2.421,23.71H103.841V262.94h19.688v18.869Z" transform="translate(-99 -258.099)" fill="url(#linear-gradient)"/>
      </g>
    </g>
  </g>
</svg>
