<svg xmlns="http://www.w3.org/2000/svg" xmlns:xlink="http://www.w3.org/1999/xlink" width="83.511" height="57.066" viewBox="0 0 83.511 57.066">
  <defs>
    <linearGradient id="linear-gradient" x1="0.5" x2="0.5" y2="1" gradientUnits="objectBoundingBox">
      <stop offset="0" stop-color="#51aae8"/>
      <stop offset="1" stop-color="#7c5af1"/>
    </linearGradient>
  </defs>
  <g id="Free_delivery" data-name="Free delivery" transform="translate(-2 -21)">
    <path id="Path_62" data-name="Path 62" d="M84.119,65.539H82.727V50.229A12.541,12.541,0,0,0,70.2,37.7H60.458V22.392A1.392,1.392,0,0,0,59.066,21H3.392A1.392,1.392,0,0,0,2,22.392V66.931a1.392,1.392,0,0,0,1.392,1.392H4.784v1.392A4.176,4.176,0,0,0,8.959,73.89h6.7a8.332,8.332,0,0,0,14.442,0H62.98a8.332,8.332,0,0,0,14.442,0h3.914a4.176,4.176,0,0,0,4.176-4.176V66.931A1.392,1.392,0,0,0,84.119,65.539Zm-4.176-15.31v2.784H67.417a1.392,1.392,0,0,1-1.392-1.392V40.486H70.2a9.754,9.754,0,0,1,9.743,9.743Zm-16.7-9.743V51.621A4.176,4.176,0,0,0,67.417,55.8H79.943v9.743H77.421a8.332,8.332,0,0,0-14.442,0H60.458V40.486ZM30.1,65.539a8.332,8.332,0,0,0-14.442,0H4.784V59.972h52.89v5.567ZM4.784,23.784h52.89v33.4H4.784ZM8.959,71.107a1.392,1.392,0,0,1-1.392-1.392V68.323h7.085a7.794,7.794,0,0,0,0,2.784Zm13.918,4.176a5.567,5.567,0,1,1,5.567-5.567A5.567,5.567,0,0,1,22.878,75.282ZM31.1,71.107a7.794,7.794,0,0,0,0-2.784H61.975a7.794,7.794,0,0,0,0,2.784Zm39.1,4.176a5.567,5.567,0,1,1,5.567-5.567A5.567,5.567,0,0,1,70.2,75.282Zm12.527-5.567a1.392,1.392,0,0,1-1.392,1.392H78.426a7.794,7.794,0,0,0,0-2.784h4.3Z" transform="translate(0 0)" fill="url(#linear-gradient)"/>
    <path id="Path_63" data-name="Path 63" d="M10.392,41.918a1.392,1.392,0,0,0,1.392-1.392V36.351h2.784a1.392,1.392,0,1,0,0-2.784H11.784V30.784h4.176a1.392,1.392,0,1,0,0-2.784H10.392A1.392,1.392,0,0,0,9,29.392V40.527A1.392,1.392,0,0,0,10.392,41.918Z" transform="translate(2.743 2.743)" fill="url(#linear-gradient)"/>
    <path id="Path_64" data-name="Path 64" d="M17.392,41.918a1.392,1.392,0,0,0,1.392-1.392V37.279l3.062,4.082a1.392,1.392,0,0,0,2.227-1.67l-2.661-3.548A4.164,4.164,0,0,0,20.176,28H17.392A1.392,1.392,0,0,0,16,29.392V40.527A1.392,1.392,0,0,0,17.392,41.918Zm4.176-9.743a1.392,1.392,0,0,1-1.392,1.392H18.784V30.784h1.392A1.392,1.392,0,0,1,21.567,32.176Z" transform="translate(5.486 2.743)" fill="url(#linear-gradient)"/>
    <path id="Path_65" data-name="Path 65" d="M25.392,41.918h5.567a1.392,1.392,0,0,0,0-2.784H26.784V36.351h2.784a1.392,1.392,0,0,0,0-2.784H26.784V30.784h4.176a1.392,1.392,0,1,0,0-2.784H25.392A1.392,1.392,0,0,0,24,29.392V40.527A1.392,1.392,0,0,0,25.392,41.918Z" transform="translate(8.621 2.743)" fill="url(#linear-gradient)"/>
    <path id="Path_66" data-name="Path 66" d="M32.392,41.918h5.567a1.392,1.392,0,0,0,0-2.784H33.784V36.351h2.784a1.392,1.392,0,0,0,0-2.784H33.784V30.784h4.176a1.392,1.392,0,1,0,0-2.784H32.392A1.392,1.392,0,0,0,31,29.392V40.527A1.392,1.392,0,0,0,32.392,41.918Z" transform="translate(11.364 2.743)" fill="url(#linear-gradient)"/>
    <path id="Path_67" data-name="Path 67" d="M51.931,40H7.392a1.392,1.392,0,1,0,0,2.784H51.931a1.392,1.392,0,1,0,0-2.784Z" transform="translate(1.567 7.445)" fill="url(#linear-gradient)"/>
  </g>
</svg>
