<svg xmlns="http://www.w3.org/2000/svg" width="110.157" height="122.287" viewBox="0 0 110.157 122.287">
  <g id="insurance" transform="translate(-21.028 0)">
    <g id="Group_8" data-name="Group 8" transform="translate(30.575 82.456)">
      <g id="Group_7" data-name="Group 7">
        <path id="Path_10" data-name="Path 10" d="M72.589,285.888H57.014a2.893,2.893,0,0,0-2.884,2.884v10.672a2.893,2.893,0,0,0,2.884,2.884H72.589a2.893,2.893,0,0,0,2.884-2.884V288.772A2.893,2.893,0,0,0,72.589,285.888ZM69.7,296.56H59.9v-4.9H69.7Z" transform="translate(-54.13 -285.888)" fill="#fff"/>
      </g>
    </g>
    <g id="Group_10" data-name="Group 10" transform="translate(88.548 82.456)">
      <g id="Group_9" data-name="Group 9">
        <path id="Path_11" data-name="Path 11" d="M273.589,285.888H258.014a2.893,2.893,0,0,0-2.884,2.884v10.672a2.893,2.893,0,0,0,2.884,2.884h15.575a2.893,2.893,0,0,0,2.884-2.884V288.772A2.893,2.893,0,0,0,273.589,285.888ZM270.7,296.56H260.9v-4.9H270.7Z" transform="translate(-255.13 -285.888)" fill="#fff"/>
      </g>
    </g>
    <g id="Group_12" data-name="Group 12" transform="translate(57.398 92.839)">
      <g id="Group_11" data-name="Group 11" transform="translate(0)">
        <path id="Path_12" data-name="Path 12" d="M170.088,321.888H150.014a2.884,2.884,0,1,0,0,5.768h20.074a2.884,2.884,0,1,0,0-5.768Z" transform="translate(-147.13 -321.888)" fill="#fff"/>
      </g>
    </g>
    <g id="Group_14" data-name="Group 14" transform="translate(57.398 84.764)">
      <g id="Group_13" data-name="Group 13" transform="translate(0)">
        <path id="Path_13" data-name="Path 13" d="M170.088,293.888H150.014a2.884,2.884,0,1,0,0,5.768h20.074a2.884,2.884,0,1,0,0-5.768Z" transform="translate(-147.13 -293.888)" fill="#fff"/>
      </g>
    </g>
    <g id="Group_16" data-name="Group 16" transform="translate(21.028 0)">
      <g id="Group_15" data-name="Group 15" transform="translate(0 0)">
        <path id="Path_14" data-name="Path 14" d="M129.763,13.985,104.18.343a2.808,2.808,0,0,0-2.74.029L76.492,14.014a2.893,2.893,0,0,0-1.529,2.538V35.876A37.72,37.72,0,0,0,77.3,48.74H44.246a9.6,9.6,0,0,0-8.826,5.855L28.3,71.179l-2.884,2.74a12.708,12.708,0,0,0-4.384,9.691V112.8a9.38,9.38,0,0,0,9.287,9.489h5.538a9.441,9.441,0,0,0,9.4-9.489v-3.519h49.9v3.49a9.565,9.565,0,0,0,9.547,9.489h5.48a9.534,9.534,0,0,0,9.489-9.489V82.831a12.719,12.719,0,0,0-3.951-9.2L113.7,71.5l-1.327-2.913A38.353,38.353,0,0,0,131.176,35.5V16.552A2.653,2.653,0,0,0,129.763,13.985ZM40.728,56.873a3.894,3.894,0,0,1,3.519-2.394H79.953a42.332,42.332,0,0,0,2.769,4.326,15.084,15.084,0,0,0-9.374,11.248H35.1Zm46.292,6.836a40.042,40.042,0,0,0,8.855,6.345H79.29A9.17,9.17,0,0,1,87.019,63.709Zm-47.5,49.06a3.674,3.674,0,0,1-3.634,3.721H30.4a3.609,3.609,0,0,1-3.576-3.721v-4.124a8.926,8.926,0,0,0,3.576.635h9.114Zm74.413,0a3.73,3.73,0,0,1-3.721,3.721h-5.48a3.779,3.779,0,0,1-3.778-3.721v-3.49h9.258a9.631,9.631,0,0,0,3.721-.635Zm0-29.967V99.934a3.609,3.609,0,0,1-3.721,3.576H30.4a3.484,3.484,0,0,1-3.576-3.4V83.581a7.009,7.009,0,0,1,2.394-5.336l.058-.058,2.567-2.365h77.989l1.759,1.817c.029.029.087.058.144.115A7.012,7.012,0,0,1,113.929,82.8Zm11.537-47.33a32.616,32.616,0,0,1-19.988,30.14l-2.74,1.183L100.4,65.785a32.781,32.781,0,0,1-19.67-29.967V18.225L102.738,6.14l22.728,12.114Z" transform="translate(-21.028 0)" fill="#fff"/>
      </g>
    </g>
    <g id="Group_18" data-name="Group 18" transform="translate(89.613 28.068)">
      <g id="Group_17" data-name="Group 17">
        <path id="Path_15" data-name="Path 15" d="M286.37,98.374a2.886,2.886,0,0,0-4.067-.4l-13.5,10.989-4.9-5.74a2.884,2.884,0,1,0-4.384,3.749l6.72,7.874.087.087c.029.029.058.087.115.115s.087.087.115.115.087.058.115.087a.629.629,0,0,0,.144.087c.029.029.087.058.115.087.058.029.087.058.144.087a.219.219,0,0,0,.115.058.41.41,0,0,0,.173.058c.029.029.087.029.115.058.058.029.115.029.173.058.029,0,.087.029.115.029.058,0,.115.029.173.029.029,0,.087.029.115.029h.635c.058,0,.144-.029.2-.029a.106.106,0,0,0,.087-.029c.058,0,.115-.029.173-.029.029,0,.058-.029.087-.029.058,0,.087-.029.144-.058.029,0,.058-.029.115-.029.029-.029.087-.029.115-.058s.058-.029.115-.058.087-.029.115-.058a.15.15,0,0,1,.115-.058.219.219,0,0,1,.115-.058c.029,0,.058-.058.115-.087.029-.029.058-.029.087-.058l15.69-12.748A2.886,2.886,0,0,0,286.37,98.374Z" transform="translate(-258.824 -97.315)" fill="#fff"/>
      </g>
    </g>
  </g>
</svg>
