<svg xmlns="http://www.w3.org/2000/svg" xmlns:xlink="http://www.w3.org/1999/xlink" width="133.456" height="127.787" viewBox="0 0 133.456 127.787">
  <defs>
    <linearGradient id="linear-gradient" x1="0.5" x2="0.5" y2="1" gradientUnits="objectBoundingBox">
      <stop offset="0" stop-color="#50caf6"/>
      <stop offset="1" stop-color="#577ffb"/>
    </linearGradient>
  </defs>
  <g id="motorbike" transform="translate(0 -10.875)">
    <path id="Path_18" data-name="Path 18" d="M317.162,299.964a2.808,2.808,0,0,0-2.493-2.793,41.036,41.036,0,0,1-9.449-2.15,26.786,26.786,0,0,1-5.088-2.448,4.29,4.29,0,0,0-4.552,0,26.752,26.752,0,0,1-5.088,2.448,41.049,41.049,0,0,1-9.449,2.15h0a2.808,2.808,0,0,0-2.493,2.793V313.4a22.884,22.884,0,0,0,8.912,18.2l8.671,6.73a2.811,2.811,0,0,0,3.448,0l8.671-6.73a22.884,22.884,0,0,0,8.912-18.2V299.964Zm-3.91,13.44a19,19,0,0,1-7.4,15.108l-8,6.207-8-6.207a19,19,0,0,1-7.4-15.108V300.937a44.3,44.3,0,0,0,9.373-2.243,30.668,30.668,0,0,0,5.832-2.813.356.356,0,0,1,.383,0,30.672,30.672,0,0,0,5.831,2.813,44.286,44.286,0,0,0,9.373,2.243V313.4Z" transform="translate(-205.944 -207.789)" fill="url(#linear-gradient)"/>
    <path id="Path_19" data-name="Path 19" d="M319.757,343.934a1.955,1.955,0,0,0-3.1,2.377l6.266,8.182a1.955,1.955,0,0,0,1.538.766h.014a1.954,1.954,0,0,0,1.535-.745l11.3-14.339a1.955,1.955,0,0,0-3.071-2.42l-9.742,12.363Z" transform="translate(-233.817 -241.126)" fill="url(#linear-gradient)"/>
    <path id="Path_20" data-name="Path 20" d="M133.456,76.793a22.366,22.366,0,0,0-30.739-20.731L98.181,46.8h9.193a3.6,3.6,0,0,0,3.6-3.6,9.79,9.79,0,0,0-7.219-9.432L99.785,32.7v-.6A8.074,8.074,0,1,0,95.3,16.587l-2.482-4.015A3.591,3.591,0,0,0,88.086,11.3a7.566,7.566,0,0,0-2.9,10.62,4.772,4.772,0,0,1,.369,4.207l-.967,2.467L79.26,27.146a12.035,12.035,0,0,0-13.71,5.814L64,35.776a4.436,4.436,0,0,1-4.97,2.158l-34.1-8.608a11.542,11.542,0,0,0-13.2,6.192,4.013,4.013,0,0,0-.455,1.739,3.593,3.593,0,0,0,1.141,2.649,7.6,7.6,0,0,0,12.158,8.84s9.161,6.458,10.784,8a17.738,17.738,0,0,1,3.9,5.419l.005.009,0,0A22.348,22.348,0,1,0,7.392,93.391a1.955,1.955,0,0,0,2.619-2.9A18.438,18.438,0,1,1,35.63,64l-4.24,1.414a14.532,14.532,0,1,0,5.168,14.5l4.164-1.389a18.453,18.453,0,0,1-23.43,16.016,1.955,1.955,0,0,0-1.075,3.759A22.359,22.359,0,0,0,44.7,77.19l2.937-.98A11.534,11.534,0,0,0,53.1,77.59H72.313a11.581,11.581,0,0,0,10.609-6.937l9.57-21.865a3.312,3.312,0,0,1,1.517-1.615L99.239,57.85A22.551,22.551,0,0,0,95.5,60.792a22.224,22.224,0,0,0-6.718,14.8c-.144.145-1.334,1.615-1.862,2.143-1.736,1.736-6.013,4.657-15.16,4.723l-2.976.022a3.31,3.31,0,0,0-3.277,3.3v20.007A29.793,29.793,0,0,0,77.032,129.32l9.791,7.6a8.3,8.3,0,0,0,10.178,0l4.476-3.474a1.955,1.955,0,0,0-2.4-3.088L94.6,133.83a4.388,4.388,0,0,1-5.384,0l-9.791-7.6a25.886,25.886,0,0,1-10.014-20.448V86.38l2.372-.017c10.542-.076,15.737-3.71,17.9-5.868A19.661,19.661,0,0,0,91.5,78.4a.507.507,0,0,1,.42-.21.494.494,0,0,1,.409.206,18.976,18.976,0,0,0,1.81,2.1c1.738,1.738,6.961,5.789,17.9,5.868l2.372.017v19.4a25.879,25.879,0,0,1-8.747,19.4,1.955,1.955,0,1,0,2.591,2.927,29.787,29.787,0,0,0,10.065-22.325V97.951a22.46,22.46,0,0,0,15.139-21.158ZM97.571,20.171a4.166,4.166,0,0,1,2.214,7.694V25.824a6.973,6.973,0,0,0-1.043-3.67l-1.224-1.98C97.536,20.173,97.553,20.171,97.571,20.171Zm-9.045-.294A3.657,3.657,0,0,1,89.661,14.9l5.755,9.31a3.069,3.069,0,0,1,.459,1.614v5.819l-7.487-2.026.811-2.068a8.7,8.7,0,0,0-.673-7.672ZM19.168,47.094a3.689,3.689,0,0,1-3.519-4.807L21.326,46.4a3.692,3.692,0,0,1-2.157.7Zm4.956,32.838a3.783,3.783,0,0,1-2.394-7.178l19.146-6.385,1.372,3.683a11.478,11.478,0,0,0,1.843,3.221Zm-1.768,7.49a10.629,10.629,0,1,1,4.188-20.395l-6.051,2.018a7.693,7.693,0,1,0,4.868,14.6l6.546-2.183a10.662,10.662,0,0,1-9.55,5.964ZM88.91,47.22,79.34,69.085a7.671,7.671,0,0,1-7.027,4.6H53.1a7.7,7.7,0,0,1-7.188-4.993L43.9,63.3h7.535a11.793,11.793,0,0,0,8.466-3.609l5.928-6.175a1.955,1.955,0,0,0-2.82-2.707L57.085,56.98a7.864,7.864,0,0,1-5.646,2.406h-9.2l-.01-.019q-.136-.254-.28-.5l-.015-.026a21.677,21.677,0,0,0-4.454-5.452c-2.028-1.792-22.21-16.2-22.21-16.2a7.62,7.62,0,0,1,8.7-4.067l34.1,8.608a8.351,8.351,0,0,0,9.35-4.059l0,0,1.633.859a3.249,3.249,0,0,1,.831,5.126l-.867.9a1.955,1.955,0,0,0,2.82,2.707l.867-.9a7.159,7.159,0,0,0-1.832-11.293l-1.537-.808a8.131,8.131,0,0,1,8.9-3.331l24.489,6.628a5.874,5.874,0,0,1,4.322,5.345H95.528A7.222,7.222,0,0,0,88.91,47.22Zm3.9,27.152a18.576,18.576,0,0,1,8.172-12.96l1.724,3.519a14.527,14.527,0,0,0-6.148,11.862c0,.2.007.4.015.6a15.071,15.071,0,0,1-1.107-1.323,4.376,4.376,0,0,0-2.655-1.692Zm19.251,8.081a27.828,27.828,0,0,1-10.958-2.036A10.618,10.618,0,0,1,104.459,68.5l4.885,9.971a2.03,2.03,0,0,0,2.615.9,1.955,1.955,0,0,0,.9-2.615l-4.948-10.1a10.622,10.622,0,0,1,10.24,18.082,3.311,3.311,0,0,0-3.106-2.262Zm6.253,11.316V89.407a14.535,14.535,0,0,0-12.145-26.292l-1.717-3.506a18.132,18.132,0,0,1,6.644-1.265,18.448,18.448,0,0,1,7.219,35.424Z" transform="translate(0 0)" fill="url(#linear-gradient)"/>
  </g>
</svg>
