<svg xmlns="http://www.w3.org/2000/svg" xmlns:xlink="http://www.w3.org/1999/xlink" width="95.478" height="126.554" viewBox="0 0 95.478 126.554">
  <defs>
    <linearGradient id="linear-gradient" x1="0.5" x2="0.5" y2="1" gradientUnits="objectBoundingBox">
      <stop offset="0" stop-color="#50baf6"/>
      <stop offset="1" stop-color="#5781fb"/>
    </linearGradient>
  </defs>
  <g id="insurance" transform="translate(-62.862)">
    <g id="Group_35" data-name="Group 35" transform="translate(85.809)">
      <g id="Group_34" data-name="Group 34">
        <path id="Path_36" data-name="Path 36" d="M168.363,0a12.663,12.663,0,1,0,12.663,12.663A12.677,12.677,0,0,0,168.363,0Zm0,21.619a8.955,8.955,0,1,1,8.955-8.955A8.966,8.966,0,0,1,168.363,21.619Z" transform="translate(-155.7 0)" fill="url(#linear-gradient)"/>
      </g>
    </g>
    <g id="Group_37" data-name="Group 37" transform="translate(119.075 76.657)">
      <g id="Group_36" data-name="Group 36" transform="translate(0)">
        <path id="Path_37" data-name="Path 37" d="M317.155,310.66a1.854,1.854,0,0,0-2.622.026l-15.561,15.87-5.5-5.75a1.854,1.854,0,0,0-2.681,2.562l6.819,7.134a1.854,1.854,0,0,0,2.664.017l16.9-17.237A1.855,1.855,0,0,0,317.155,310.66Z" transform="translate(-290.283 -310.13)" fill="url(#linear-gradient)"/>
      </g>
    </g>
    <g id="Group_39" data-name="Group 39" transform="translate(133.134 89.534)">
      <g id="Group_38" data-name="Group 38" transform="translate(0)">
        <path id="Path_38" data-name="Path 38" d="M370.2,362.263a1.854,1.854,0,0,0-2.18,1.457,32.774,32.774,0,0,1-19.7,23.851,1.854,1.854,0,1,0,1.379,3.442,36.291,36.291,0,0,0,21.955-26.57A1.854,1.854,0,0,0,370.2,362.263Z" transform="translate(-347.161 -362.227)" fill="url(#linear-gradient)"/>
      </g>
    </g>
    <g id="Group_41" data-name="Group 41" transform="translate(62.862 30.012)">
      <g id="Group_40" data-name="Group 40">
        <path id="Path_39" data-name="Path 39" d="M152.994,152.409c-4.959,2.8-9.637,2.9-13.9.278a17.825,17.825,0,0,1-5.369-5.251,3.553,3.553,0,0,0-2.88-1.708A51.31,51.31,0,0,0,117.3,125.369a14.884,14.884,0,0,0-10.108-3.949H89.755a15.651,15.651,0,0,0-10.738,4.239,50.639,50.639,0,0,0-16.155,37.034,7.416,7.416,0,0,0,7.091,7.462,7.291,7.291,0,0,0,7.5-7.293,35.716,35.716,0,0,1,5.869-19.795v68.462a6.44,6.44,0,0,0,6.432,6.432h4.139a6.413,6.413,0,0,0,4.578-1.918,6.412,6.412,0,0,0,4.578,1.918h4.139a6.44,6.44,0,0,0,6.432-6.432v-9.774a35.705,35.705,0,0,0,12.025,7.971,1.854,1.854,0,1,0,1.379-3.442,32.661,32.661,0,0,1-20.332-30.335V155.742c7.506,4.157,14.773,3.143,20.71-2.4a19.608,19.608,0,0,0,3.222-3.752l.037-.056a21.663,21.663,0,0,0,6.489,6.311c3.753,2.3,9.82,4.138,17.481-.106v18.4a1.854,1.854,0,1,0,3.708,0V155.529A3.585,3.585,0,0,0,152.994,152.409Zm-51.261-27.281-2.22,2.637a1.359,1.359,0,0,1-2.079,0l-2.22-2.637Zm11.89,29.287V143.547a35,35,0,0,1,4.573,10.8A11.558,11.558,0,0,1,113.622,154.415Zm8.057-1.425a39.342,39.342,0,0,0-8.507-16.237,1.856,1.856,0,0,0-3.259,1.21v15.255c-.8-.364-1.8-.92-1.828-.933a3.583,3.583,0,0,0-5.1,3.245v20.421a36.394,36.394,0,0,0,6.929,21.447V211.53h0a2.727,2.727,0,0,1-2.724,2.724h-4.139a2.727,2.727,0,0,1-2.724-2.724v-38.1a1.854,1.854,0,1,0-3.708,0v38.1a2.727,2.727,0,0,1-2.724,2.724H89.755a2.727,2.727,0,0,1-2.724-2.724V137.6a1.856,1.856,0,0,0-3.244-1.226,39.49,39.49,0,0,0-10.041,26.492,3.586,3.586,0,0,1-3.691,3.587,3.686,3.686,0,0,1-3.485-3.744,46.956,46.956,0,0,1,14.982-34.34,11.954,11.954,0,0,1,8.2-3.238h.611l4.231,5.025a5.067,5.067,0,0,0,7.752,0l4.23-5.025h.611a11.187,11.187,0,0,1,7.6,2.969,47.542,47.542,0,0,1,12.758,19.431A17.857,17.857,0,0,1,121.68,152.99Z" transform="translate(-62.862 -121.42)" fill="url(#linear-gradient)"/>
      </g>
    </g>
  </g>
</svg>
