<svg xmlns="http://www.w3.org/2000/svg" xmlns:xlink="http://www.w3.org/1999/xlink" width="116.254" height="120.261" viewBox="0 0 116.254 120.261">
  <defs>
    <linearGradient id="linear-gradient" x1="0.5" x2="0.5" y2="1" gradientUnits="objectBoundingBox">
      <stop offset="0" stop-color="#50baf6"/>
      <stop offset="1" stop-color="#5780fb"/>
    </linearGradient>
  </defs>
  <g id="travel-insurance" transform="translate(-7.996 0)">
    <g id="Group_29" data-name="Group 29" transform="translate(7.996 0)">
      <g id="Group_28" data-name="Group 28" transform="translate(0)">
        <path id="Path_33" data-name="Path 33" d="M122.247,77.28a2.01,2.01,0,0,0-.384.037h.008c-.539.1-1.08.18-1.622.239V26.49a6.452,6.452,0,0,0-6.446-6.446H82.158V12.269A12.271,12.271,0,0,0,69.9,0H56.352A12.271,12.271,0,0,0,44.075,12.265v7.779H14.45A6.452,6.452,0,0,0,8,26.49V93.773a6.452,6.452,0,0,0,6.454,6.446h5.572a6.013,6.013,0,0,0,12.026,0H88.171v1.375a16.865,16.865,0,0,0,2.526,8.847,17.364,17.364,0,0,0,8.156,6.923l6.582,2.742a2,2,0,0,0,1.543,0l6.582-2.742a17.364,17.364,0,0,0,8.18-6.923,16.863,16.863,0,0,0,2.509-8.847V79.285A2,2,0,0,0,122.247,77.28ZM48.084,12.269A8.206,8.206,0,0,1,50.5,6.428a8.323,8.323,0,0,1,5.849-2.419H69.9a8.324,8.324,0,0,1,5.847,2.419,8.206,8.206,0,0,1,2.405,5.841v7.775H74.141v-6.6a5.426,5.426,0,0,0-5.412-5.426h-11.2a5.426,5.426,0,0,0-5.434,5.418v6.608H48.084Zm22.048,1.175v6.6H56.1v-6.6a1.417,1.417,0,0,1,1.417-1.417H68.729A1.417,1.417,0,0,1,70.132,13.443ZM12,26.49a2.439,2.439,0,0,1,2.441-2.437h9.585v17.21L12,53.289Zm0,32.467L27.451,43.511l6.6-6.6,5.135,5.137L12,67.532ZM14.45,96.21A2.439,2.439,0,0,1,12,93.777V73.026L24.031,61.751V96.21Zm11.585,6.013a2,2,0,0,1-2-2H28.04A2,2,0,0,1,26.035,102.224ZM90.577,77.317a2,2,0,0,0-2.405,1.968V96.21H28.04V58.127c0-.04-.02-.072-.022-.112L43.442,43.553a2,2,0,0,0,.09-2.833l-.044-.045L35.47,32.657a2,2,0,0,0-2.834,0l-4.6,4.6v-13.2H100.2v4.169a14.031,14.031,0,1,0,0,27.741V76.768A19.655,19.655,0,0,1,90.577,77.317Zm17.639-35.225A10.022,10.022,0,1,1,98.193,32.07,10.022,10.022,0,0,1,108.215,42.092Zm-4.009,73.16-3.808-1.591a13.387,13.387,0,0,1-6.29-5.33h.01a12.853,12.853,0,0,1-1.938-6.737v-20a23.72,23.72,0,0,0,12.026-2.077Zm2.87-40.877c-.06-.028-.116-.052-.178-.074a2,2,0,0,0-.665-.138h-.022a2,2,0,0,0-.669.136c-.062.022-.118.046-.178.074a1.535,1.535,0,0,0-.148.062l-1,.577V54.75a14,14,0,0,0,0-25.315V24.053H113.8a2.439,2.439,0,0,1,2.431,2.437V77.58a19.536,19.536,0,0,1-8.006-2.558l-1-.585A1.505,1.505,0,0,0,107.077,74.375Zm13.165,27.22a12.827,12.827,0,0,1-1.922,6.737,13.373,13.373,0,0,1-6.284,5.33l-3.82,1.591V79.516a23.668,23.668,0,0,0,12.026,2.077Z" transform="translate(-7.996 0)" fill="url(#linear-gradient)"/>
      </g>
    </g>
    <g id="Group_31" data-name="Group 31" transform="translate(37.583 69.205)">
      <g id="Group_30" data-name="Group 30">
        <path id="Path_34" data-name="Path 34" d="M146.522,285.282l-8.511-8.5a2.062,2.062,0,0,0-2.834,0l-8.5,8.5a2,2,0,0,0,0,2.834l8.511,8.5a2,2,0,0,0,2.834,0l8.5-8.5A2,2,0,0,0,146.522,285.282Zm-9.936,7.085-5.67-5.668,5.67-5.67,5.67,5.67Z" transform="translate(-126.086 -276.213)" fill="url(#linear-gradient)"/>
      </g>
    </g>
    <g id="Group_33" data-name="Group 33" transform="translate(50.097 44.097)">
      <g id="Group_32" data-name="Group 32">
        <path id="Path_35" data-name="Path 35" d="M205.5,190.619l-14.023-14.031a2,2,0,0,0-2.834,0l-12.026,12.026a2,2,0,0,0,0,2.834l14.031,14.031a2,2,0,0,0,1.409.587h12.026a2,2,0,0,0,2-2V192.036A2,2,0,0,0,205.5,190.619Zm-3.422,11.439h-9.184l-12.026-12.026,9.184-9.192,12.026,12.026Z" transform="translate(-176.03 -176.002)" fill="url(#linear-gradient)"/>
      </g>
    </g>
  </g>
</svg>
